<svg xmlns="http://www.w3.org/2000/svg" width="56" height="56" viewBox="0 0 56 56"><defs><style>.a{fill:none;}</style></defs><g transform="translate(10479 -7563)"><rect class="a" width="56" height="56" transform="translate(-10479 7563)"/><g transform="translate(-10522 7563)"><g transform="translate(48 0)"><g transform="translate(0 0)"><path d="M92.992,11.007,82.492.507A1.75,1.75,0,0,0,81.25,0h-28A5.25,5.25,0,0,0,48,5.25v45.5A5.25,5.25,0,0,0,53.25,56h35a5.25,5.25,0,0,0,5.25-5.25V12.25A1.75,1.75,0,0,0,92.992,11.007ZM90,50.75a1.75,1.75,0,0,1-1.75,1.75h-35a1.75,1.75,0,0,1-1.75-1.75V5.25A1.75,1.75,0,0,1,53.25,3.5H79.5v7A3.5,3.5,0,0,0,83,14h7Z" transform="translate(-48 0)"/><path d="M133.25,176a5.25,5.25,0,1,0,5.25,5.25A5.25,5.25,0,0,0,133.25,176Zm0,7a1.75,1.75,0,1,1,1.75-1.75A1.75,1.75,0,0,1,133.25,183Z" transform="translate(-119.25 -156.75)"/><path d="M133.25,336a5.25,5.25,0,1,0,5.25,5.25A5.25,5.25,0,0,0,133.25,336Zm0,7a1.75,1.75,0,1,1,1.75-1.75A1.75,1.75,0,0,1,133.25,343Z" transform="translate(-119.25 -299.25)"/><rect width="14" height="3.5" transform="translate(22.75 19.25)"/><rect width="7" height="3.5" transform="translate(22.75 26.25)"/><rect width="14" height="3.5" transform="translate(22.75 36.75)"/><rect width="7" height="3.5" transform="translate(22.75 43.75)"/></g></g></g></g></svg>