<svg xmlns="http://www.w3.org/2000/svg" width="56" height="56" viewBox="0 0 56 56"><defs><style>.a{fill:#f0f3f7;}.b{fill:#020c26;}</style></defs><g transform="translate(0 -0.431)"><g transform="translate(0 0.431)"><circle class="a" cx="28" cy="28" r="28"/></g><g transform="translate(16 18.459)"><path class="b" d="M15,6.5a1,1,0,0,1-1-1V4H10V5.5a1,1,0,0,1-2,0V4a2,2,0,0,1,2-2h4a2,2,0,0,1,2,2V5.5A1,1,0,0,1,15,6.5Z" transform="translate(0 -2)"/><path class="b" d="M12.71,15.38a2.06,2.06,0,0,1-.71.12,2.191,2.191,0,0,1-.77-.14L0,11.62v7.63A2.748,2.748,0,0,0,2.75,22h18.5A2.748,2.748,0,0,0,24,19.25V11.62Z" transform="translate(0 -2)"/><path class="b" d="M24,7.75v2.29L12.24,13.96a.74.74,0,0,1-.48,0L0,10.04V7.75A2.748,2.748,0,0,1,2.75,5h18.5A2.748,2.748,0,0,1,24,7.75Z" transform="translate(0 -2)"/></g></g></svg>