<svg xmlns="http://www.w3.org/2000/svg" width="750" height="750" viewBox="0 0 750 750"><defs><style>.a{fill:#f8f8f8;}.b{fill:#00a0e1;}.c{fill:#5a3c7d;}.d{fill:#81b830;}.e{fill:#f06d1a;}</style></defs><g transform="translate(-847 -396)"><rect class="a" width="750" height="750" rx="8" transform="translate(847 396)"/><g transform="translate(1058.566 472.933)"><path class="b" d="M871.957,399.175c-78.271,18.67-98.325,84.3-83.781,141.846,10.538,41.711,31.972,78.781,50.193,117.226,12.978,27.375,26.128,54.694,25.842,86.105-.43,47.305-46.6,80.833-92.636,66.759,15.6-24.648,6.872-47.346-6.527-68.964-27.16-43.814-58.236-85.19-81.662-131.338-18.306-36.064-30.83-72.621-23-114.528,15.875-84.9,98.13-123.685,167.423-113.376C842.48,385.087,857.354,387.768,871.957,399.175Z" transform="translate(-658.012 -218.121)"/><path class="c" d="M794.048,391.559c19.011,7.733,33.322,16.229,43.077,30.838,31.482,47.147,28.795,96.428,6.427,145.61-18.11,39.823-51.42,65.734-87.512,88.415-4.895,3.076-7.475,2.728-10.069-2.817-12.29-26.292-24.921-52.424-37.576-78.919C795.868,556.688,847.2,475.279,794.048,391.559Z" transform="translate(-538.259 -193.688)"/><path class="d" d="M766.971,422.98c-18.615.144-36.789,3.2-54.727,8.175-13.052,3.62-25.942,5.1-33.7-9.607-7.131-13.527.179-23.844,8.863-33.056,46.4-49.226,149.276-39.636,186.3,17.374,7.248,11.156,12.644,23.029,2.078,35.47-10.915,12.845-23.436,8.442-35.032,2.046C817.691,430.658,793.4,423.205,766.971,422.98Z" transform="translate(-616.062 -276.537)"/><path class="c" d="M791.775,390.852c27.1,31.573,34.174,66.678,19.965,104.921-14.317,38.533-45.749,54.6-83.776,61.239-6.935,1.212-11.873-.312-13.977-8.051-3.516-12.936-7.307-25.819-11.556-38.533-3.044-9.114.3-11.917,9.156-12.511,10.015-.675,20.179-1.752,29.871-4.245,41.932-10.785,63.917-48.031,53.755-90.19C794.194,399.243,792.932,395.059,791.775,390.852Z" transform="translate(-555.052 -195.369)"/><path class="e" d="M781.382,390.643c17.8,51.51-16.367,95.023-70.663,90.545-8.483-.7-10.262-4.08-9.832-11.586.784-13.726,5.09-26.322,10.8-38.6,2.717-5.842,6.7-7.365,13.431-6.744C759.543,427.426,767.984,422.108,781.382,390.643Z" transform="translate(-556.246 -195.865)"/><path class="e" d="M699.026,368.857c.031-19.768,13.6-35.991,30.029-35.9,16.487.091,29.815,16.418,29.625,36.287-.191,19.772-13.9,36.243-30.058,36.105C712.427,405.216,699,388.655,699.026,368.857Z" transform="translate(-560.53 -332.962)"/></g></g></svg>