<svg xmlns="http://www.w3.org/2000/svg" width="56" height="56" viewBox="0 0 56 56"><defs><style>.a{fill:#f0f3f7;}.b{fill:#020c26;}</style></defs><g transform="translate(0 -0.002)"><circle class="a" cx="28" cy="28" r="28" transform="translate(0 0.002)"/><g transform="translate(17.379 16.414)"><g transform="translate(2.716)"><path class="b" d="M76.93,6.789H91.363a2.679,2.679,0,0,0,.93-1.942C92.293,2.356,88.334,0,84.147,0S76,2.356,76,4.847A2.679,2.679,0,0,0,76.93,6.789Zm4.615-3.771a.679.679,0,0,1,.941-.188l1.66,1.106,1.66-1.106a.679.679,0,0,1,.753,1.13L84.523,5.317a.679.679,0,0,1-.753,0L81.733,3.959a.678.678,0,0,1-.188-.941Z" transform="translate(-76)"/><path class="b" d="M138.754,180c.493,1.565,2.637,2.716,5.306,2.716s4.813-1.15,5.306-2.716Z" transform="translate(-135.914 -171.853)"/></g><g transform="translate(0 17.741)"><path class="b" d="M174.737,430.8h4.905l1.271-3.814a4.049,4.049,0,0,1-7.46-.036Z" transform="translate(-166.328 -425.366)"/><path class="b" d="M21.168,392h-.416A4.758,4.758,0,0,0,16,396.752a.678.678,0,0,0,.679.679h6.3Z" transform="translate(-16 -392)"/><path class="b" d="M344.031,392h-.416l-1.81,5.431h6.3a.679.679,0,0,0,.679-.679A4.755,4.755,0,0,0,344.031,392Z" transform="translate(-327.06 -392)"/></g><path class="b" d="M141.431,230.937A7.987,7.987,0,0,1,136,229.085v1.942a5.444,5.444,0,0,0,2.716,4.687v.745a2.716,2.716,0,0,0,5.431,0v-.745a5.444,5.444,0,0,0,2.716-4.687v-1.942A7.987,7.987,0,0,1,141.431,230.937Zm2.56,2.353a2.716,2.716,0,0,1-5.121,0,.679.679,0,1,1,1.28-.452,1.359,1.359,0,0,0,2.562,0,.679.679,0,1,1,1.279.452Z" transform="translate(-130.569 -218.717)"/></g></g></svg>