<svg xmlns="http://www.w3.org/2000/svg" width="104" height="104" viewBox="0 0 104 104"><defs><style>.a{fill:#f0f3f7;}.b{fill:none;}.c{fill:#030404;}.d{fill:#040505;}</style></defs><g transform="translate(-1343 -327)"><circle class="a" cx="52" cy="52" r="52" transform="translate(1343 327)"/><g transform="translate(0.053 0.053)"><rect class="b" width="56" height="56" transform="translate(1366.947 350.947)"/><g transform="translate(1378.265 373.583)"><path class="c" d="M1108.916,432.584a2.035,2.035,0,1,1-2.035-2.035A2.035,2.035,0,0,1,1108.916,432.584Z" transform="translate(-1079.414 -424.045)"/><path class="c" d="M872.147,432.584a2.035,2.035,0,1,1-2.035-2.035A2.035,2.035,0,0,1,872.147,432.584Z" transform="translate(-862.014 -424.045)"/><path class="c" d="M824.028,353.874c-2.264-1.751-6.845-2.844-10.852-2.844-3.694,0-6.926,1.161-8.687,2.834h-3.855a6.67,6.67,0,0,0-6.671,6.671,1.071,1.071,0,0,0,1.072,1.071h4.025a3.537,3.537,0,1,1,5.785,0h13.693a3.536,3.536,0,1,1,5.786,0h2.7a1.436,1.436,0,0,0,1.436-1.436v-1.557A4.747,4.747,0,0,0,824.028,353.874Zm-9.124.026h-7.836c2.358-1.741,8.488-1.414,8.488-1.414Zm1.523,0,.58-1.2a14.822,14.822,0,0,1,4.317,1.2Z" transform="translate(-793.964 -351.03)"/></g><path class="d" d="M-852.293,523.372a2.7,2.7,0,0,0-2.984.594l-4.834,4.834q.012-.133.012-.269a3.056,3.056,0,0,0-3.052-3.052h-4.508l-2.459-1.23a7.665,7.665,0,0,0-3.411-.805,7.63,7.63,0,0,0-3.925,1.087l-.5.3a2.377,2.377,0,0,0-2.157-1.385h-4.205a1.018,1.018,0,0,0-1.017,1.017v11.531a1.017,1.017,0,0,0,1.017,1.017h4.205a2.378,2.378,0,0,0,2.28-1.713l5.568,1.67a1.018,1.018,0,0,0,.292.043h10.25a6.406,6.406,0,0,0,5.067-2.463l5.464-6.955a2.75,2.75,0,0,0,.585-1.691,2.7,2.7,0,0,0-1.69-2.529Zm-.495,2.964-5.464,6.955a4.383,4.383,0,0,1-3.467,1.685h-10.1l-5.915-1.774v-6.128l1.328-.8a5.594,5.594,0,0,1,2.878-.8,5.62,5.62,0,0,1,2.5.59l2.674,1.337a1.018,1.018,0,0,0,.455.107h4.748a1.019,1.019,0,0,1,1.018,1.017,1.019,1.019,0,0,1-1.018,1.017h-6.1a1.017,1.017,0,0,0-1.017,1.018,1.018,1.018,0,0,0,1.017,1.017h8.818a1.018,1.018,0,0,0,.719-.3l5.881-5.881a.68.68,0,0,1,.766-.152.679.679,0,0,1,.434.649.7.7,0,0,1-.15.434Z" transform="translate(2257.928 -135.32)"/><path class="d" d="M-883.642,536.795a2.7,2.7,0,0,0,2.984-.594l4.834-4.834q-.012.133-.012.268a3.056,3.056,0,0,0,3.052,3.052h4.508l2.459,1.23a7.667,7.667,0,0,0,3.411.805,7.629,7.629,0,0,0,3.924-1.087l.5-.3a2.377,2.377,0,0,0,2.158,1.385h4.205a1.018,1.018,0,0,0,1.017-1.017V524.175a1.018,1.018,0,0,0-1.017-1.018h-4.205a2.378,2.378,0,0,0-2.28,1.713l-5.567-1.67a1.019,1.019,0,0,0-.292-.043h-10.25a6.406,6.406,0,0,0-5.067,2.463l-5.464,6.954a2.75,2.75,0,0,0-.585,1.691,2.7,2.7,0,0,0,1.69,2.529Zm.495-2.964,5.464-6.954a4.383,4.383,0,0,1,3.467-1.685h10.1l5.915,1.774v6.128l-1.328.8a5.594,5.594,0,0,1-2.877.8,5.621,5.621,0,0,1-2.5-.59l-2.674-1.337a1.016,1.016,0,0,0-.455-.107h-4.748a1.018,1.018,0,0,1-1.017-1.017,1.018,1.018,0,0,1,1.017-1.017h6.1a1.017,1.017,0,0,0,1.017-1.017,1.018,1.018,0,0,0-1.017-1.018H-875.5a1.017,1.017,0,0,0-.719.3l-5.881,5.881a.679.679,0,0,1-.766.152.679.679,0,0,1-.434-.649.7.7,0,0,1,.15-.434Z" transform="translate(2267.905 -166.249)"/></g></g></svg>