<svg xmlns="http://www.w3.org/2000/svg" width="207.158" height="48" viewBox="0 0 207.158 48"><defs><style>.a{fill:none;}.b{fill:#0c0809;}.b,.c{fill-rule:evenodd;}.c{fill:#cd5427;}</style></defs><g transform="translate(-1141 -5399)"><rect class="a" width="207.158" height="48" transform="translate(1141 5399)"/><g transform="translate(1141 5399)"><path class="b" d="M1696.194,784.436h-13.5l-15.479,15.6,6.8,6.769Z" transform="translate(-1489.666 -784.436)"/><path class="b" d="M752.708,921.319a3.5,3.5,0,0,1,5.263-3.026l-.069-10.9a26.248,26.248,0,0,0-3.6-.311,12.635,12.635,0,0,0-9.409,3.633c-2.225,2.422-3.321,5.668-3.321,9.739v15.408a5.566,5.566,0,0,0,11.132,0l0-12.979Z" transform="translate(-667.082 -893.423)"/><path class="b" d="M937.376,900.2a13.373,13.373,0,0,0-19.621-.64,13.536,13.536,0,0,0-3.841,9.781V925.9h.007a5.565,5.565,0,0,0,11.118,0h.011l-.067-16.731v-.525a2.166,2.166,0,1,1,4.331,0v.531l-.066,16.724h.011a5.564,5.564,0,0,0,11.117,0h.008V910.233q0-6.431-3.008-10.034" transform="translate(-820.234 -883.209)"/><path class="b" d="M418.627,897.323A17.684,17.684,0,1,0,436.306,915,17.68,17.68,0,0,0,418.627,897.323Zm0,21.82A4.139,4.139,0,1,1,422.763,915,4.14,4.14,0,0,1,418.627,919.143Z" transform="translate(-364.378 -884.755)"/><path class="b" d="M279.552,790.768h-.029a5.545,5.545,0,0,0-11.089.125c0,.164.008.325.022.485v35.763c-.014.16-.022.321-.022.485a5.545,5.545,0,0,0,11.073.446h.045Z" transform="translate(-246.62 -785.246)"/><path class="b" d="M86.684,803.443H83.6V790.769h-.007a5.544,5.544,0,0,0-11.086,0h0v37.3h.019a5.545,5.545,0,0,0,11.053,0H83.6V814.529h2.827c.087,0,.174.007.261.007a5.546,5.546,0,1,0,0-11.092" transform="translate(-72.5 -785.246)"/><path class="c" d="M1235.335,792.68A23.871,23.871,0,1,0,1234.79,826l17-16.95Zm-17.577,25.482a9.1,9.1,0,1,1,9.233-9.059A9.147,9.147,0,0,1,1217.758,818.162Z" transform="translate(-1068.848 -785.112)"/><path class="b" d="M1696.194,1034.631h-13.5l-15.479-15.6,6.8-6.77Z" transform="translate(-1489.666 -986.898)"/></g></g></svg>