<svg xmlns="http://www.w3.org/2000/svg" width="36.862" height="48" viewBox="0 0 36.862 48"><defs><style>.a{fill:#020c26;}</style></defs><g transform="translate(-59.404)"><path class="a" d="M156,138.22a10.207,10.207,0,0,0,10.2-10.2v-6.87a8.335,8.335,0,0,1-2,.243H145.8v6.627A10.207,10.207,0,0,0,156,138.22Z" transform="translate(-78.3 -109.797)"/><path class="a" d="M169.728,3.255V0H151.338A5.54,5.54,0,0,0,145.8,5.534V8.789h18.389a5.54,5.54,0,0,0,5.534-5.534Z" transform="translate(-78.3)"/><path class="a" d="M218.332,328.378v1.106a3.4,3.4,0,0,0,6.791,0v-1.106a13.023,13.023,0,0,1-6.791,0Z" transform="translate(-144.028 -297.592)"/><path class="a" d="M393.23,144.071v4.722c0,.136,0,.271-.007.406h.615a2.564,2.564,0,0,0,0-5.128h-.609Z" transform="translate(-302.523 -130.564)"/><path class="a" d="M84.528,149.2h.615c0-.135-.007-.27-.007-.406v-4.722h-.608a2.564,2.564,0,1,0,0,5.128Z" transform="translate(-20.445 -130.565)"/><path class="a" d="M223.733,326.617h5.872l15.584-14.629V307.44Z" transform="translate(-148.923 -278.617)"/><path class="a" d="M330.2,428.406h11.2l-1.991-8.648Z" transform="translate(-245.41 -380.406)"/><path class="a" d="M83.515,363.314a6.207,6.207,0,0,1-11.633,0H64.816l-2.862,2.862L59.4,377.253H70.59l15.6-13.939Z" transform="translate(0 -329.253)"/></g></svg>