<svg xmlns="http://www.w3.org/2000/svg" width="104" height="104" viewBox="0 0 104 104"><defs><style>.a{fill:#f0f3f7;}.b{fill:none;}.c{fill:#020c26;}</style></defs><circle class="a" cx="52" cy="52" r="52"/><g transform="translate(28 35)"><rect class="b" width="56" height="56" transform="translate(-4 -11)"/><g transform="translate(4 8)"><path class="c" d="M47.666,160h-4a1,1,0,1,0,0,2h4a1,1,0,1,0,0-2Z" transform="translate(-42.666 -160)"/></g><g transform="translate(6.999)"><path class="c" d="M108.608,85.365c-.19-.6-4.006-8.684-5.434-9.552-1.486-.9-10.376-1.146-11.52-1.146s-10.034.242-11.52,1.146c-1.428.866-5.244,8.954-5.434,9.552a1,1,0,1,0,1.908.6c.314-.994,3.782-7.762,4.544-8.434.846-.4,7.076-.868,10.5-.868s9.656.464,10.432.82c.83.72,4.3,7.488,4.614,8.482a1,1,0,1,0,1.908-.6Z" transform="translate(-74.652 -74.667)"/></g><g transform="translate(0 26)"><path class="c" d="M9,354a.985.985,0,0,0-.952.762L2,353.249V353a1,1,0,1,0-2,0v4a3,3,0,0,0,3,3H7a3,3,0,0,0,3-3v-2A1,1,0,0,0,9,354Z" transform="translate(0 -351.999)"/></g><g transform="translate(38 26)"><path class="c" d="M414.332,352a1,1,0,0,0-1,1v.25l-6.048,1.512a.985.985,0,0,0-.952-.762,1,1,0,0,0-1,1v2a3,3,0,0,0,3,3h4a3,3,0,0,0,3-3v-4A1,1,0,0,0,414.332,352Z" transform="translate(-405.332 -352)"/></g><g transform="translate(38 8)"><path class="c" d="M410.333,160h-4a1,1,0,0,0,0,2h4a1,1,0,0,0,0-2Z" transform="translate(-405.333 -160)"/></g><g transform="translate(36 17.434)"><path class="c" d="M395.921,260.629l-2.728.546c-.336.052-7.052,1.02-8.754,1.02a5.425,5.425,0,0,0-.438,2.68c6.1-.288,10.842-.67,10.918-.676l1.078-.146C395.995,262.727,395.975,261.6,395.921,260.629Z" transform="translate(-383.999 -260.629)"/></g><g transform="translate(0.266 8)"><path class="c" d="M48.853,165.038c-.448-.13-.682-.456-1.126-1.12l-.342-.5c-.6-.834-1.754-.87-2.872-.9a7.753,7.753,0,0,1-1.12-.084.977.977,0,0,0-.342-.308C41.185,161.1,34.115,160,26.571,160s-14.614,1.1-16.48,2.124a.986.986,0,0,0-.344.31,7.753,7.753,0,0,1-1.12.084c-1.116.032-2.272.066-2.87.9l-.342.5c-.444.664-.678.99-1.126,1.12-.784.23-1.214,1.034-1.452,2.5l1.976.494c.032,0,6.556.97,8.758.97a2.56,2.56,0,0,1,1.926.832,5.948,5.948,0,0,1,1.084,3.936c3.218.134,6.692.232,9.99.232s6.778-.1,10-.232c-.022-.884.028-3.1,1.018-4.144A1.924,1.924,0,0,1,39.011,169c1.294,0,6.516-.714,8.418-.99l2.862-.574C50.051,166.034,49.621,165.262,48.853,165.038ZM33.571,172h-14a1,1,0,1,1,0-2h14a1,1,0,0,1,0,2Z" transform="translate(-2.837 -160)"/></g><g transform="translate(0.052 22.882)"><path class="c" d="M47.634,318.852c-.174.014-12.548,1.008-23.132,1.008s-22.958-.994-23.08-1l-.868-.09c.108,2.17.442,5.424,1.478,5.976,1.08.574,13.574,1.116,22.47,1.116s21.39-.542,22.468-1.118c1.04-.554,1.374-3.83,1.48-6Z" transform="translate(-0.554 -318.742)"/></g><g transform="translate(0 17.546)"><path class="c" d="M11.456,263.467a.559.559,0,0,0-.456-.188c-2.36,0-8.872-.97-9.148-1.01L.07,261.825c-.05.948-.068,2.058-.07,3.344l1.1.114c.064.006,4.808.386,10.9.676A4.21,4.21,0,0,0,11.456,263.467Z" transform="translate(0 -261.825)"/></g></g></svg>