<svg xmlns="http://www.w3.org/2000/svg" width="104" height="104" viewBox="0 0 104 104"><defs><style>.a{fill:#f0f3f7;}.b{fill:none;}.c{fill:#030504;}.d{fill:#040505;}</style></defs><circle class="a" cx="52" cy="52" r="52"/><g transform="translate(28 36)"><rect class="b" width="56" height="56" transform="translate(-4 -12)"/><g transform="translate(0.692 -7)"><g transform="translate(15.118)"><path class="c" d="M-566.2,240.87a1.592,1.592,0,0,0,1.591-1.591v-4.207a1.592,1.592,0,0,0-1.591-1.591h-4.126v7.389Zm-2.025-2.9v-1.579a.6.6,0,0,1,.6-.6.6.6,0,0,1,.6.6h0v1.579a.6.6,0,0,1-.6.6A.6.6,0,0,1-568.225,237.965Z" transform="translate(584.971 -233.481)"/><path class="c" d="M-690.764,233.481h-1.007a1.593,1.593,0,0,0-1.591,1.591v.157h-8.567a.3.3,0,0,0-.19.069l-1.988,1.649a.3.3,0,0,0-.039.42.3.3,0,0,0,.039.039l1.988,1.649a.3.3,0,0,0,.19.069h1.175a.3.3,0,0,0,.211-.087l.935-.935.935.935a.3.3,0,0,0,.211.087h1.443a.3.3,0,0,0,.211-.087l.935-.935.935.935a.3.3,0,0,0,.211.087h1.363v.157a1.592,1.592,0,0,0,1.591,1.591h1.007Z" transform="translate(704.215 -233.481)"/></g><g transform="translate(8.223 12.344)"><path class="d" d="M-566.638,348.928a20.117,20.117,0,0,0-7.477-1.432h-.36v2.542h6.727Z" transform="translate(594.811 -347.496)"/><path class="d" d="M-807.6,392.638a13.74,13.74,0,0,0-6.808,1.808,1.625,1.625,0,0,0-.818,1.409v3.138h1.271a3.813,3.813,0,0,1,3.813-3.813,3.814,3.814,0,0,1,3.813,3.813h10.168v-6.355Zm6.991.635h2.542v1.271h-2.542Z" transform="translate(815.228 -388.825)"/><path class="d" d="M-782.592,437.78a2.542,2.542,0,0,0-2.542,2.542,2.542,2.542,0,0,0,2.542,2.542,2.542,2.542,0,0,0,2.542-2.542A2.542,2.542,0,0,0-782.592,437.78Z" transform="translate(787.676 -430.154)"/><path class="d" d="M-695.438,350.342h8.947v-2.514a20.314,20.314,0,0,0-8.824,2.451Z" transform="translate(705.557 -347.8)"/><path class="d" d="M-559.223,373.4v-.72l-3.9-.557a.638.638,0,0,1-.246-.09,20.311,20.311,0,0,0-2.015-1.1l-1.648,1.648a.636.636,0,0,1-.449.186h-6.991v6.355h5.084a3.817,3.817,0,0,1,3.813-3.813c.131,0,.26.007.387.02.047,0,.092.015.139.021.08.011.16.02.238.036.049.01.1.026.144.037.073.018.148.034.22.057.054.017.106.039.159.058s.127.044.191.07.105.05.158.075.117.053.174.084.1.06.15.091.11.064.163.1.1.072.147.109.1.07.146.109.093.084.139.127.089.077.131.119.085.092.127.138.081.085.118.127.077.1.115.151.072.092.1.141.064.107.1.161.063.1.092.152.055.112.083.168.055.107.079.163.045.116.064.175.045.115.063.174.033.12.049.181.034.12.048.182.02.124.03.185.023.127.03.191.008.127.011.19.011.117.012.175l1.823-.73a1.137,1.137,0,0,0,.721-1.065v-2.605h-1.907V373.4Z" transform="translate(594.811 -368.949)"/><path class="d" d="M-496.7,437.78a2.542,2.542,0,0,0-2.542,2.542,2.542,2.542,0,0,0,2.542,2.542,2.542,2.542,0,0,0,2.542-2.542A2.542,2.542,0,0,0-496.7,437.78Z" transform="translate(525.93 -430.154)"/></g><path class="d" d="M-840.983,523.446a3.618,3.618,0,0,0-4,.8l-6.489,6.489q.016-.178.016-.36a4.1,4.1,0,0,0-4.1-4.1h-6.051l-3.3-1.651a10.292,10.292,0,0,0-4.579-1.081A10.242,10.242,0,0,0-874.758,525l-.667.4a3.191,3.191,0,0,0-2.9-1.859h-5.645a1.366,1.366,0,0,0-1.366,1.366v15.478a1.366,1.366,0,0,0,1.366,1.366h5.645a3.192,3.192,0,0,0,3.06-2.3l7.473,2.242a1.363,1.363,0,0,0,.392.058h13.759a8.6,8.6,0,0,0,6.8-3.306l7.335-9.335a3.692,3.692,0,0,0,.785-2.27,3.618,3.618,0,0,0-2.269-3.4Zm-.664,3.978-7.335,9.335a5.883,5.883,0,0,1-4.654,2.262h-13.559l-7.939-2.382v-8.226l1.782-1.069a7.509,7.509,0,0,1,3.863-1.07,7.546,7.546,0,0,1,3.357.793l3.589,1.795a1.364,1.364,0,0,0,.611.144h6.373a1.367,1.367,0,0,1,1.366,1.366,1.367,1.367,0,0,1-1.366,1.366h-8.194a1.366,1.366,0,0,0-1.366,1.366,1.366,1.366,0,0,0,1.366,1.366h11.836a1.365,1.365,0,0,0,.966-.4l7.894-7.894a.911.911,0,0,1,1.028-.2.912.912,0,0,1,.582.872.947.947,0,0,1-.2.583Z" transform="translate(885.332 -493.602)"/></g></g></svg>