<svg xmlns="http://www.w3.org/2000/svg" width="56" height="56" viewBox="0 0 56 56"><defs><style>.a{fill:#f0f3f7;}.b{fill:#020c26;}</style></defs><g transform="translate(-0.5 -0.5)"><circle class="a" cx="28" cy="28" r="28" transform="translate(0.5 0.5)"/><path class="b" d="M3,7.714a.429.429,0,0,1,.429-.429H4.5a.643.643,0,1,1,0,1.286H3.429A.429.429,0,0,1,3,8.143Zm.857,2.143a.429.429,0,0,1,.429-.429H5.357a.643.643,0,1,1,0,1.286H4.286a.429.429,0,0,1-.429-.429ZM4.714,12a.429.429,0,0,1,.429-.429H6.214a.643.643,0,1,1,0,1.286H5.143a.429.429,0,0,1-.429-.429Zm2.357,3H6a.429.429,0,0,1-.429-.429v-.429A.429.429,0,0,1,6,13.714H7.071a.643.643,0,1,1,0,1.286Zm9.643-.857h-.628L14.5,11.762l-.713.476,1.269,1.9H13.514l-1.586-2.381-.713.476,1.27,1.9H10.942L9.357,11.762l-.713.476,1.27,1.9H9.026a1.239,1.239,0,0,1-.492-.112,1.5,1.5,0,0,0-1.011-1.1,1.477,1.477,0,0,0-.857-2.143,1.477,1.477,0,0,0-.857-2.143A1.483,1.483,0,0,0,6,7.929a1.5,1.5,0,0,0-1.5-1.5H3.429a1.279,1.279,0,0,0-.5.1L2.062,5.322a.429.429,0,0,0-.348-.179H0V0H5.853L9.191,2.595A1.711,1.711,0,0,0,9.429,6h4.033l4.152,7.475A.948.948,0,0,1,16.714,14.143ZM24,12.857H18.252l-1.19-2.143h2.224V9.857h-2.7l-2.5-4.5a.429.429,0,0,0-.373-.217H9.429a.857.857,0,1,1,0-1.714h4.586l6.321,4.214a.431.431,0,0,0,.236.072H24Zm0,0" transform="translate(16.5 21.477)"/></g></svg>