<svg xmlns="http://www.w3.org/2000/svg" width="35.669" height="24" viewBox="0 0 35.669 24"><defs><style>.a{fill:#020c26;}</style></defs><g transform="translate(0 -64.425)"><path class="a" d="M27.8,71.686a8.386,8.386,0,0,0-8.215-3.8A8.377,8.377,0,0,0,4.425,72.659,8.379,8.379,0,0,0,8.377,88.425H27.292a8.378,8.378,0,0,0,.51-16.74Zm-.51,14.475H18.967V76.377l3.5,3.5a1.132,1.132,0,0,0,1.6-1.6l-5.434-5.434a1.132,1.132,0,0,0-1.6,0L11.6,78.278a1.132,1.132,0,0,0,1.6,1.6l3.5-3.5v9.783H8.377A6.114,6.114,0,0,1,6.015,74.407a1.132,1.132,0,0,0,.691-1.13c-.012-.156-.018-.316-.018-.475a6.114,6.114,0,0,1,11.389-3.089,1.132,1.132,0,0,0,1.238.528,6.122,6.122,0,0,1,6.827,3.092,1.128,1.128,0,0,0,1.025.6l.124,0a6.113,6.113,0,0,1,0,12.227Z"/></g></svg>