<svg xmlns="http://www.w3.org/2000/svg" xmlns:xlink="http://www.w3.org/1999/xlink" width="35.189" height="57.588" viewBox="0 0 35.189 57.588"><defs><style>.a{fill:url(#a);}.b{fill:url(#e);}.c{fill:url(#f);}.d{fill:url(#g);}.e{opacity:0.4;fill:url(#h);}.f{fill:url(#i);}.g{fill:url(#j);}.h{fill:url(#k);}.i{fill:url(#l);}.j{fill:url(#m);}.k{fill:url(#n);}.l{fill:url(#o);}.m{fill:url(#p);}.n{fill:url(#q);}.o{fill:url(#r);}.p{fill:url(#s);}.q{fill:#dc456d;}.r{filter:url(#b);}</style><linearGradient id="a" x1="-0.003" y1="0.496" x2="1.002" y2="0.503" gradientUnits="objectBoundingBox"><stop offset="0" stop-color="#fcff57"/><stop offset="1" stop-color="#bfb500"/></linearGradient><filter id="b" x="0" y="0" width="35.189" height="57.588" filterUnits="userSpaceOnUse"><feOffset dy="3" input="SourceAlpha"/><feGaussianBlur stdDeviation="3" result="c"/><feFlood flood-opacity="0.161"/><feComposite operator="in" in2="c"/><feComposite in="SourceGraphic"/></filter><linearGradient id="e" x1="0.002" y1="0.492" x2="1.003" y2="0.523" gradientUnits="objectBoundingBox"><stop offset="0" stop-color="gray"/><stop offset="1" stop-color="#353533"/></linearGradient><linearGradient id="f" x1="3.014" y1="0.5" x2="0.288" y2="0.5" gradientUnits="objectBoundingBox"><stop offset="0" stop-color="#e6e6e4"/><stop offset="1" stop-color="#353533"/></linearGradient><linearGradient id="g" x1="0.003" y1="0.484" x2="1.003" y2="0.509" gradientUnits="objectBoundingBox"><stop offset="0" stop-color="#8c928a"/><stop offset="0.999" stop-color="#424242"/></linearGradient><linearGradient id="h" x1="-0.001" y1="0.482" x2="0.999" y2="0.556" gradientUnits="objectBoundingBox"><stop offset="0" stop-color="#120400"/><stop offset="1" stop-color="#262624"/></linearGradient><linearGradient id="i" x1="-0.752" y1="0.499" x2="1.163" y2="0.501" xlink:href="#g"/><linearGradient id="j" x1="-0.008" y1="0.486" x2="0.99" y2="0.501" xlink:href="#g"/><linearGradient id="k" x1="-4.685" x2="1.176" xlink:href="#f"/><linearGradient id="l" x1="-0.003" y1="0.49" x2="0.99" y2="0.506" xlink:href="#g"/><linearGradient id="m" x1="-0.009" y1="0.499" x2="2.232" y2="0.502" gradientUnits="objectBoundingBox"><stop offset="0.001" stop-color="#424242"/><stop offset="1" stop-color="#8c928a"/></linearGradient><linearGradient id="n" x1="0.996" y1="0.488" x2="0.007" y2="0.509" xlink:href="#a"/><linearGradient id="o" x1="-0.001" y1="0.472" x2="0.998" y2="0.533" gradientUnits="objectBoundingBox"><stop offset="0" stop-color="#4e4e4e"/><stop offset="0.999" stop-color="#2e2e2e"/></linearGradient><linearGradient id="p" x1="0.003" y1="0.486" x2="0.993" y2="0.509" gradientUnits="objectBoundingBox"><stop offset="0" stop-color="#bfb500"/><stop offset="1" stop-color="#fcff57"/></linearGradient><linearGradient id="q" x1="-0.001" y1="0.478" x2="0.999" y2="0.549" gradientUnits="objectBoundingBox"><stop offset="0" stop-color="#2b2b29"/><stop offset="0.999" stop-color="#373735"/></linearGradient><linearGradient id="r" x1="0.008" y1="0.495" x2="1.003" y2="0.505" gradientUnits="objectBoundingBox"><stop offset="0" stop-color="#cc407b"/><stop offset="1" stop-color="#f84f56"/></linearGradient><linearGradient id="s" x1="0.003" y1="0.496" x2="1.011" y2="0.504" xlink:href="#r"/></defs><g transform="translate(27.744 45.588) rotate(180)"><g class="r" transform="matrix(-1, 0, 0, -1, 27.74, 45.59)"><path class="a" d="M9.412.011H7.6A15.5,15.5,0,0,0,4.322.26,4.819,4.819,0,0,0,.2,5.46S.347,21.952.2,26.775c-.008.26.092.62.062,1-.048.6-.233,1.264-.25,1.675-.027.636,0,2.546,0,2.546A6.132,6.132,0,0,0,1.2,35.91,7.669,7.669,0,0,0,2.98,38.019a7.169,7.169,0,0,0,1.632,1.091,2.669,2.669,0,0,0,.638.08c.4.071.952.229,1.368.279.3.036.985.118,1.3.118h1.5a10.434,10.434,0,0,0,2.266-.287,4.53,4.53,0,0,0,.746-.1,9.344,9.344,0,0,0,1.885-1.139,7.156,7.156,0,0,0,1.664-1.925,5.837,5.837,0,0,0,.744-1.241A9.565,9.565,0,0,0,17,32s.049-2.005,0-2.671a20.613,20.613,0,0,1-.154-2.281c-.034-2.853.042-7.607.057-9.625.023-3.164.286-12.654.286-12.654a4.305,4.305,0,0,0-.96-2.96A5.259,5.259,0,0,0,13.174.152,21.7,21.7,0,0,0,9.412.011Z" transform="translate(26.19 45.59) rotate(180)"/></g><path class="a" d="M9.412.011H7.6A15.5,15.5,0,0,0,4.322.26,4.819,4.819,0,0,0,.2,5.46S.347,21.952.2,26.775c-.008.26.092.62.062,1-.048.6-.233,1.264-.25,1.675-.027.636,0,2.546,0,2.546A6.132,6.132,0,0,0,1.2,35.91,7.669,7.669,0,0,0,2.98,38.019a7.169,7.169,0,0,0,1.632,1.091,2.669,2.669,0,0,0,.638.08c.4.071.952.229,1.368.279.3.036.985.118,1.3.118h1.5a10.434,10.434,0,0,0,2.266-.287,4.53,4.53,0,0,0,.746-.1,9.344,9.344,0,0,0,1.885-1.139,7.156,7.156,0,0,0,1.664-1.925,5.837,5.837,0,0,0,.744-1.241A9.565,9.565,0,0,0,17,32s.049-2.005,0-2.671a20.613,20.613,0,0,1-.154-2.281c-.034-2.853.042-7.607.057-9.625.023-3.164.286-12.654.286-12.654a4.305,4.305,0,0,0-.96-2.96A5.259,5.259,0,0,0,13.174.152,21.7,21.7,0,0,0,9.412.011Z" transform="translate(1.555 0)"/><path class="b" d="M.031,6.481A13.378,13.378,0,0,0,5.38,7.928,18.74,18.74,0,0,0,13.874,6.67L12.553.252A27.451,27.451,0,0,1,6.009.818,25.178,25.178,0,0,1,.849,0S0,5.506,0,5.757.031,6.481.031,6.481Z" transform="translate(2.982 22.599)"/><path class="c" d="M0,21.582s1.164-7.488,1.353-11.514c0,0,.283-4.971.126-6.984,0,0-.189-2.454-.252-2.643L1.133.189.6,0S.252,4.121.252,5.065.126,10.6.126,11.483.063,19.1.063,19.1Z" transform="translate(2.321 6.995)"/><path class="d" d="M7.488,9.966H7.456l-.051,0c-.09,0-.251.008-.469.006H6.925C5.582,9.96,2.146,9.692.086,7.481.059,7.452.032,7.423.006,7.393L0,7.386s0-.021,0-.059V7.282c0-.027,0-.053,0-.079,0-.159.008-.4.022-.621.009-.147.022-.286.04-.391C.126,5.813.944.276.944.151s.126-.189.44-.126A29.266,29.266,0,0,0,6.8.717,35.45,35.45,0,0,0,12.584.025a.433.433,0,0,1,.252.315c.063.252.692,3.712.818,4.342.105.526.342,1.667.417,2.468.015.157.023.3.023.426C14.094,7.575,12.521,9.84,7.488,9.966Zm5.128-8.9a24.725,24.725,0,0,1-4.845.629v.755H5.946V1.692A49.3,49.3,0,0,1,1.038.937L.409,5.593A6.415,6.415,0,0,0,.283,7.229C2.863,8.676,7.33,8.613,7.33,8.613c4.53-.126,6.544-1.2,6.544-1.2C13.748,6.1,12.615,1.063,12.615,1.063Z" transform="translate(2.825 21.82)"/><path class="e" d="M14.094.994c0-.124-.008-.269-.023-.426L14.031.8A2.327,2.327,0,0,1,13.4,1.5C9.186,4.265,3.335,2.5,3.335,2.5.944,1.749.315.931.189.742A3.986,3.986,0,0,1,.023,0C.009.223,0,.462,0,.621,0,.647,0,.673,0,.7S0,.728,0,.742a.011.011,0,0,0,0,0C0,.768,0,.79.006.811.032.841.059.87.086.9c2.059,2.211,5.5,2.479,6.839,2.495h.011c.216,0,.378,0,.469-.006l.051,0h.031C12.521,3.259,14.094.994,14.094.994Z" transform="translate(2.825 28.401)"/><path class="f" d="M0,22.242a26.679,26.679,0,0,0,.252-3.083l.268-.378.11-.818-.378.315s0-5.348.063-7.8A4.95,4.95,0,0,1,1.447,9.47L1.51,8.211a6.647,6.647,0,0,0-1.2.315S.477,5.71.45,3.9q-.008-.5.025-1A9.408,9.408,0,0,1,.755.724L1.2.535S.661,0,.535,0c0,0-.22,2.234-.22,2.989S.031,12.207.031,13.4,0,22.242,0,22.242Z" transform="translate(2.259 6.649)"/><path class="g" d="M0,.126a1.8,1.8,0,0,0,.252.5c.126.126.566.5.566.5s.063,0,.126-.378A5.245,5.245,0,0,0,1.007,0Z" transform="translate(1.189 24.864)"/><path class="h" d="M1.894,21.9a3.994,3.994,0,0,1-.252-.755c-.23-1.022-.571-2.916-.881-4.467a35.128,35.128,0,0,1-.755-6.355c-.014-.535,0-.99,0-1.51C0,7.065.035,5.34.132,3.838.238,2.2.258.629.51.44A3.278,3.278,0,0,1,1.453,0s.189,1.51.283,8.148c.022,1.511.063,5.852.126,8.117.053,1.926.1,4.356.094,5.128C1.956,21.529,1.894,21.9,1.894,21.9Z" transform="translate(16.032 6.806)"/><path class="i" d="M.212,1.07S.967.44.967,0A7.118,7.118,0,0,0,.024.252,1.1,1.1,0,0,0,.212,1.07Z" transform="translate(18.059 25.148)"/><path class="j" d="M1.221,19.191l.667,2.517V19.442l-.724-.5L.975,17.932l.157.252.629.315V10.445L0,9.438v-1.2l1.636.315s-.063-2.139-.063-3.146,0-4.216-.126-4.719L.5.566A3.857,3.857,0,0,1,1.51,0s.126,1.573.189,3.083.126,5.159.126,5.663.126,3.461.126,4.027-.032,5.631-.032,6.072a30.751,30.751,0,0,1,0,3.524A12.172,12.172,0,0,1,1.221,19.191Z" transform="translate(16.038 6.68)"/><path class="k" d="M1.539,1.67A2.718,2.718,0,0,1,.112.337S-.149-.119.125.03c.507.254,1.022.606,1.529.86.286.125.41.387.344.517a.825.825,0,0,1-.178.217A.273.273,0,0,1,1.539,1.67Z" transform="translate(0 23.646)"/><path class="l" d="M10.508,3.335A20.094,20.094,0,0,1,11.2,1.2s.252-.378.189-.5-.5-.566-2.139-.629S3.02-.063,1.321.126c0,0-1.07.189-1.321.629,0,0,.44,2.328.44,2.517,0,0,1.133-.566,4.845-.5C5.285,2.769,9,2.706,10.508,3.335Z" transform="translate(4.524 0.829)"/><path class="m" d="M.628,1.652A2.744,2.744,0,0,0,2.07.337S2.33-.118,2.056.03L.212.953a.289.289,0,0,0-.155.454.739.739,0,0,0,.206.2A.376.376,0,0,0,.628,1.652Z" transform="translate(17.744 23.835)"/><path class="n" d="M.689,2.513a19.454,19.454,0,0,1,3.7-.312,33.884,33.884,0,0,1,4.655.317A.28.28,0,0,0,9.3,2.349L9.953.824A.559.559,0,0,0,9.681.15S6.085,0,4.886,0C3.789,0,.5.159.5.159A.528.528,0,0,0,.007.768l.2,1.3C.258,2.36.389,2.515.689,2.513Z" transform="translate(5.175 1.206)"/><path class="o" d="M.005,2.586a.214.214,0,0,0,.109.238A1.547,1.547,0,0,1,.6,3.2a.658.658,0,0,0,.377.189c.189,0,.252-.126.44-.378s.6-.849.661-.975A8.97,8.97,0,0,0,1.234.051C1.108-.075.982.051.856.239A16.663,16.663,0,0,0,.005,2.586Z" transform="translate(14.993 1.47)"/><path class="p" d="M1.7,2.778S1.384.576,1.321.387,1.07-.053,1.007.01A15.015,15.015,0,0,0,0,2.023,4.425,4.425,0,0,0,.692,3.471C.818,3.471,1.416,2.873,1.7,2.778Z" transform="translate(3.265 1.322)"/><path class="q" d="M2.932,3.876a.066.066,0,0,0,.1-.073,2.339,2.339,0,0,0-.151-.412A20.011,20.011,0,0,0,1.873,1.377,7.014,7.014,0,0,0,.053,0,.044.044,0,0,0,0,.055a5.2,5.2,0,0,0,.645,1.48A10.572,10.572,0,0,0,2.932,3.876Z" transform="translate(2.65 34.687)"/><path class="q" d="M.05,3.759s.5,0,2.328-2.013C3.234.8,3.134.172,3.071.046s-.44,0-1.007.44-.881.566-1.2,1.2S-.2,3.759.05,3.759Z" transform="translate(14.477 34.886)"/></g></svg>